<svg xmlns="http://www.w3.org/2000/svg" width="1000" height="250" viewBox="0 0 1000 250">
  <defs>
    <style>
      .cls-1 {
        fill: #253d7f;
        fill-rule: evenodd;
      }
    </style>
  </defs>
  <path id="BRABUSZ" class="cls-1" d="M87.463,135.11q11.407,0,15.386,2.918,3.979,3.007,3.98,9.285,0,6.722-4.422,9.374Q97.9,159.339,87.64,159.34H76.94V135.11H87.463Zm-1.68-44.833q13.086,0,16.005,3.449a11.727,11.727,0,0,1,2.918,7.782,10.834,10.834,0,0,1-3.183,8.135q-3.362,3.1-14.06,3.095H76.94V90.277h8.843Zm42.534,93.292q13.881-2.653,21.841-11.23a29.991,29.991,0,0,0,7.959-21.046,28.058,28.058,0,0,0-7.074-18.659q-6.987-8.134-19.985-12.026a35.907,35.907,0,0,0,16.094-8.843q6.455-6.187,6.455-16.624A28.143,28.143,0,0,0,146.8,76.394q-6.81-7.869-18.747-10.523-12.115-2.564-34.221-2.564H18.666V92.753h10.7v64.111h-10.7V186.31H88.259q26.351,0,40.058-2.741h0ZM235.226,90.277a117.155,117.155,0,0,1,14.856.619,11.569,11.569,0,0,1,6.986,3.537,10.468,10.468,0,0,1,2.741,7.6,10.159,10.159,0,0,1-2.741,7.517,11.372,11.372,0,0,1-6.72,3.537,103.9,103.9,0,0,1-14.149.619h-5.306V90.277h4.333Zm4.952,66.587h-9.285V136.083h15.122l26.793,50.227h44.3V156.864h-8.843L291.29,128.743a29.765,29.765,0,0,0,13-11.318,31.614,31.614,0,0,0,4.952-17.332,32.643,32.643,0,0,0-8.136-22.107,37.279,37.279,0,0,0-20.957-11.938A98.916,98.916,0,0,0,270.067,64.5q-5.484-.574-13.176-0.884t-16.713-.309H173.327V92.753h9.992v64.111h-9.992V186.31h66.851V156.864Zm152.627-28.3H370.787l11.584-34.045ZM370.787,159.34H360.706l5.394-15.475h31.481l4.686,15.475H391.479v26.97h64.2V156.864h-9.02L423.136,92.753h9.9V63.307H344.612V92.753h9.9l-23.08,64.111h-9.373V186.31h48.724V159.34Zm163.592-24.23q11.408,0,15.386,2.918,3.98,3.007,3.98,9.285,0,6.722-4.422,9.374-4.509,2.652-14.767,2.653h-10.7V135.11h10.523ZM532.7,90.277q13.086,0,16,3.449a11.727,11.727,0,0,1,2.918,7.782,10.834,10.834,0,0,1-3.183,8.135q-3.361,3.1-14.06,3.095H523.856V90.277H532.7Zm42.534,93.292q13.881-2.653,21.841-11.23a29.991,29.991,0,0,0,7.959-21.046,28.058,28.058,0,0,0-7.074-18.659q-6.987-8.134-19.985-12.026a35.907,35.907,0,0,0,16.094-8.843q6.455-6.187,6.455-16.624a28.143,28.143,0,0,0-6.809-18.747q-6.81-7.869-18.747-10.523-12.115-2.564-34.221-2.564H465.582V92.753h10.7v64.111h-10.7V186.31h69.593q26.351,0,40.058-2.741h0Zm49.077-51.377q0,18.483,3.007,27.413a39.47,39.47,0,0,0,9.108,15.652q6.189,6.544,16.8,9.727a80.171,80.171,0,0,0,23.964,3.272q16.8,0,28.3-6.1t16.448-16.89q4.952-10.877,4.952-27.943V92.753h9.727V63.307H690.366V92.753h6.19v44.391q0,13.708-2.741,18.128-2.742,4.509-8.843,4.51-7.341,0-10.169-5.306-2.832-5.392-2.83-20.25V92.753h5.836V63.307h-62.96V92.753h9.461v39.439Zm153.158,46.071a48.678,48.678,0,0,0,29.447,9.639q17.508,0,29-10.877a34.388,34.388,0,0,0,11.5-26.174,37.681,37.681,0,0,0-4.864-18.747,41.807,41.807,0,0,0-5.35-7.561,32.274,32.274,0,0,0-6.322-5.7q-6.1-4.156-24.23-13.176-13.529-6.633-16-8.578a6.427,6.427,0,0,1-2.565-5.571q0-7.693,9.02-7.693,12.82,0,17.863,14.5h27.5V63.307H814.608v7.6q-11.232-9.2-27.413-9.2t-27.236,9.639q-11.142,9.639-11.142,26.794a33.4,33.4,0,0,0,4.687,17.421,38.143,38.143,0,0,0,11.319,12.468q7.073,4.953,22.107,11.761,11.937,5.306,15.652,8.312a8.462,8.462,0,0,1,3.448,6.9q0,7.958-9.9,7.958-13.707,0-18.658-16.094H749.79V186.31h27.678v-8.047Zm203.915-35.725h-28.65v16.8h-35.46l63.668-71.1V63.307H861.563v42.18h28.209V90.277h30.773L859.971,158.19v28.12H981.383V142.538Z"/>
</svg>
