<svg xmlns="http://www.w3.org/2000/svg" width="1000" height="250" viewBox="0 0 1000 250">
  <metadata><?xpacket begin="﻿" id="W5M0MpCehiHzreSzNTczkc9d"?>
<x:xmpmeta xmlns:x="adobe:ns:meta/" x:xmptk="Adobe XMP Core 5.6-c142 79.160924, 2017/07/13-01:06:39        ">
   <rdf:RDF xmlns:rdf="http://www.w3.org/1999/02/22-rdf-syntax-ns#">
      <rdf:Description rdf:about=""/>
   </rdf:RDF>
</x:xmpmeta>
                                                                                                    
                                                                                                    
                                                                                                    
                                                                                                    
                                                                                                    
                                                                                                    
                                                                                                    
                                                                                                    
                                                                                                    
                                                                                                    
                                                                                                    
                                                                                                    
                                                                                                    
                                                                                                    
                                                                                                    
                                                                                                    
                                                                                                    
                                                                                                    
                                                                                                    
                                                                                                    
                           
<?xpacket end="w"?></metadata>
<defs>
    <style>
      .cls-1 {
        fill: #253d7f;
        fill-rule: evenodd;
      }
    </style>
  </defs>
  <path id="BRABUSZ" class="cls-1" d="M46.176,193h78.613a52.4,52.4,0,0,0,32.031-10.506q14.159-10.5,14.16-28.291,0-19.054-20.8-31.271,30.858-6.441,30.859-32.593,0-14.93-10.644-24.054T139.242,57.16H77.621L72.836,78.449H86.215l-21.582,93.36H51.156ZM120.929,77.863h12.034q14.481,0,14.482,13.243,0,21.328-21.9,21.328H112.936Zm-12.416,53.711H120.16q8.222,0,12.919,4.444t4.7,11.767a27.562,27.562,0,0,1-5.862,17.529q-5.863,7.471-16.708,7.471H98.988ZM240.609,193l5.176-21.289H232.8l9.039-39.063h18.982L275.789,193h34.648l4.977-21.289H301.84L290.2,130.6q15.049-1.953,23.112-12.7a38.909,38.909,0,0,0,8.063-23.925,36.151,36.151,0,0,0-10.4-26.025q-10.4-10.789-28.955-10.791H211.41l-4.785,21.289H220l-21.582,93.262H185.043L179.965,193h60.644ZM254.385,78.449h15.622q7.421,0,11.813,4.091t4.395,11.3q0,21.332-25.716,21.33H245.887ZM362.875,193l4.98-21.289H355.23l11.441-22.754H407.89l0,22.754H395.3L390.219,193h56.64l4.981-21.289H437.883l-3.972-93.262h11.558l4.76-21.289H371.647l-4.783,21.289H380.02L328.7,171.711H315.609L310.629,193h52.246Zm13.91-63.379,27.3-52.344h1.367L407,129.621H376.785ZM448.422,193h78.613a52.4,52.4,0,0,0,32.031-10.506q14.159-10.5,14.161-28.291,0-19.054-20.8-31.271,30.858-6.441,30.859-32.593,0-14.93-10.644-24.054T541.488,57.16H479.867l-4.785,21.289h13.379l-21.582,93.36H453.4ZM523.175,77.863h12.034q14.483,0,14.482,13.243,0,21.328-21.9,21.328H515.182Zm-12.416,53.711h11.647q8.221,0,12.919,4.444t4.7,11.767a27.562,27.562,0,0,1-5.862,17.529q-5.864,7.471-16.708,7.471H501.234ZM614.828,78.449L600.57,140.375a78.237,78.237,0,0,0-2.148,17.176q0,20.118,13.722,28.906t31.888,8.789q23.439,0,37.163-12.01t19.386-36.424L716.41,78.449h10.338l4.877-21.289h-46.68L680.16,78.449h12.793L678.793,139.6q-3.908,16.873-10.55,24.344a21.829,21.829,0,0,1-17.094,7.471q-18.658,0-18.657-16.8a38.679,38.679,0,0,1,1.074-8.6L649.4,78.449h13.966l4.785-21.289H609.164l-4.785,21.289h10.449ZM739.047,193l2.441-10.156q10.741,12.6,26.563,12.6,18.846,0,31.2-12.4T811.605,151.4a44.5,44.5,0,0,0-4.638-19.287q-4.639-9.715-17.884-21.228T773.458,95.412a14.5,14.5,0,0,1-2.38-7.382,8.449,8.449,0,0,1,3.5-6.941q3.5-2.738,9.439-2.737,6.716,0,10.948,3.369a10.466,10.466,0,0,1,4.234,8.545A13.026,13.026,0,0,1,798.91,93h21.778l8.4-35.84h-21.68l-2.148,9.668q-9.669-10.643-26.66-10.645-18.069,0-27.93,10.84a36.274,36.274,0,0,0-9.863,25.2,33.165,33.165,0,0,0,3.906,15.039q3.9,7.716,17.055,19.467T777.879,143.9a21.579,21.579,0,0,1,2.965,10.312,16.493,16.493,0,0,1-5.03,12.267,17.2,17.2,0,0,1-12.548,4.936,15.18,15.18,0,0,1-10.743-4.2,14.052,14.052,0,0,1-4.492-10.742,21.963,21.963,0,0,1,.781-5.665H726.254L716.488,193h22.559Zm183.3,0,10.058-42.773H911.215l-5.371,22.558H862.428l87.166-97.363,4.2-18.262H853.4l-9.57,41.6h20.8l4.98-21.387h37.8l-85.457,94.434L816.977,193H922.348Z"/>
</svg>
